<?xml version="1.0" encoding="utf-8"?>
<!-- Generator: Adobe Illustrator 27.7.0, SVG Export Plug-In . SVG Version: 6.00 Build 0)  -->
<svg version="1.1" id="II_logo" xmlns="http://www.w3.org/2000/svg" xmlns:xlink="http://www.w3.org/1999/xlink" x="0px" y="0px"
	 viewBox="0 0 1002 216" style="enable-background:new 0 0 1002 216;" xml:space="preserve">
<path d="M563.6,214.3h35.1v-0.9l-8.3-10.5v-26.8h11.1l23.6,38.1h23.9v-0.9l-9.7-11.5l-19.5-29.7c12.4-3.8,21.7-11.8,21.7-25.3
	c0-16.6-13.8-24.3-40.2-24.3h-37.5v0.9l8.3,10.8V203l-8.3,10.5V214.3z M593.4,168.9h-3.1v-37.8c2.9-1,6.4-1.7,11.2-1.7
	c11.8,0,20.8,5.1,20.8,18C622.4,158.2,614.9,168.9,593.4,168.9 M514.5,208.4c-17.8,0-31.3-22-31.3-48.5c0-20.1,8.3-31.3,22.1-31.3
	c17.8,0,31.3,22,31.3,48.5C536.7,197.2,528.5,208.4,514.5,208.4 M510.8,215.5c26.3,0,44.8-18.2,44.8-44.5
	c0-28.4-18.2-49.5-46.4-49.5c-26.5,0-44.8,18.2-44.8,44.5C464.3,195,482.5,215.5,510.8,215.5 M381.1,122.7h79.3l0.3,0.9l-3.6,23.7
	h-1c-7.4-12.8-14.3-17.6-26-17.6v73.1l9.5,10.8v0.9H402v-0.9l9.5-10.8v-73.1c-11.8,0-18.8,4.8-26,17.6h-1l-3.6-23.7L381.1,122.7z
	 M340.5,215.5c19.9,0,33.9-10.8,33.9-27.1c0-13.5-8.9-21.1-24.3-27.6l-3.8-1.6c-13.5-5.7-19.1-9.3-19.1-18.2c0-8,5.7-12.2,14.4-12.2
	c9.9,0,17,5.7,23.9,18.5h0.9l6.3-21c-7.4-2.9-17.8-4.8-29.1-4.8c-20.5,0-32.7,10.2-32.7,24.3c0,14.3,7.7,21.4,25.2,28.8l3.8,1.6
	c12.8,5.4,17.6,9.7,17.6,17.9c0,8.9-5.7,14.1-16,14.1c-10.8,0-17.6-5.8-23.9-21.1h-0.9l-8,21.2C316.5,212.6,328.1,215.5,340.5,215.5
	 M301.3,187.4l-1-0.3c-9.9,12.5-21.1,20.2-38.4,20.2h-3.6v-37.1l25.6,4.4l0.7-0.4l2.6-14l-0.4-0.6l-28.5,5.5v-35.5h5.7
	c14.1,0,23,2.3,32,17.6h1l4.5-23.7l-0.3-0.9h-69.7v0.9l8.3,10.8V203l-8.3,10.5v0.9h65.6L301.3,187.4z M227.6,123.5v-0.9h-23.3v0.9
	l7,10.8L189,201.5l-25.3-67.2l4.8-10.8v-0.9h-30.4v0.9l6.5,11.4l30.1,79.5h17.5l27.9-78.9L227.6,123.5z M134.1,123.5v-0.9h-23.4v0.9
	l7.9,10.8v55.6l-48.5-67.2H46.5v0.9l7.7,10.8v68.4l-7.9,10.8v0.9h23.4v-0.9L62,202.7v-60.1l51.5,71.7h11.9l0.9-0.9v-79.2
	L134.1,123.5z M36.1,213.5L27.8,203v-68.7l8.3-10.8v-0.9H1v0.9l8.3,10.8V203L1,213.5v0.9h35.1V213.5z"/>
<path d="M963.7,86.9h-1.5V13.8l9-10.8V2.2h-35.8V3l8.3,10.8v68.7L935.5,93v0.9h61.1l4.4-28.4l-1-0.3
	C990.4,77.7,978.2,86.9,963.7,86.9 M868.7,56.7l12.8-35.1l13,35.1H868.7z M859.3,82.5L866,64h31.3l6.8,18.5L898,93v0.9h31.9V93
	l-6.5-11.2l-30-79.6h-19.9V3l4.1,10.9l-26.5,68L843.1,93v0.9H866V93L859.3,82.5z M842.2,3V2.2h-23.4V3l7.9,10.8v55.6L778.2,2.2
	h-23.6V3l7.7,10.8v68.4L754.5,93v0.9h23.4V93l-7.9-10.8V22.1l51.5,71.7h11.9l0.9-0.9V13.8L842.2,3z M705.5,87.9
	c-17.8,0-31.3-22-31.3-48.5c0-20.1,8.3-31.3,22.1-31.3c17.8,0,31.3,22,31.3,48.5C727.6,76.7,719.4,87.9,705.5,87.9 M701.7,95
	c26.3,0,44.8-18.2,44.8-44.5c0-28.4-18.2-49.5-46.4-49.5c-26.5,0-44.8,18.2-44.8,44.5C655.2,74.5,673.4,95,701.7,95 M647.2,93
	L639,82.5V13.8L647.2,3V2.2h-35.1V3l8.3,10.8v68.7L612.2,93v0.9h35.1V93z M524.3,2.2h79.3l0.3,0.9l-3.6,23.7h-1
	C591.8,14,585,9.1,573.2,9.1v73.1l9.5,10.8v0.9h-37.4V93l9.5-10.8V9.1c-11.8,0-18.8,4.8-26,17.6h-1L524,3L524.3,2.2z M475.2,95
	C499,95,510,82.6,510,56.9V13.8L517.9,3V2.2h-23.4V3l7.9,10.8v42.9c0,20.1-7.1,29-23.4,29c-14.7,0-23-7.7-23-27.1V13.8L463.2,3V2.2
	h-33V3l7.3,10.8v45C437.4,82.8,449.6,95,475.2,95 M343.4,2.2h79.3L423,3l-3.6,23.7h-1c-7.4-12.8-14.3-17.6-26-17.6v73.1l9.5,10.8
	v0.9h-37.4V93l9.5-10.8V9.1c-11.8,0-18.8,4.8-26,17.6h-1L343.1,3L343.4,2.2z M334.8,93l-8.3-10.5V13.8L334.8,3V2.2h-35.1V3l8.3,10.8
	v68.7L299.7,93v0.9h35.1V93z M211.9,2.2h79.3l0.3,0.9l-3.6,23.7h-1c-7.4-12.8-14.3-17.6-26-17.6v73.1l9.5,10.8v0.9h-37.4V93
	l9.5-10.8V9.1c-11.8,0-18.8,4.8-26,17.6h-1L211.6,3L211.9,2.2z M171.3,95c19.9,0,33.9-10.8,33.9-27.1c0-13.5-8.9-21.1-24.3-27.6
	l-3.8-1.6C163.5,33,158,29.4,158,20.5c0-8,5.7-12.2,14.4-12.2c9.9,0,17,5.7,23.9,18.5h0.9l6.3-21C196,2.9,185.7,1,174.3,1
	c-20.5,0-32.7,10.2-32.7,24.3c0,14.3,7.7,21.4,25.2,28.8l3.8,1.6c12.8,5.4,17.6,9.7,17.6,17.9c0,8.9-5.7,14.1-16,14.1
	c-10.8,0-17.6-5.8-23.9-21.1h-0.9l-8,21.2C147.2,92.1,158.9,95,171.3,95 M134.1,3V2.2h-23.4V3l7.9,10.8v55.6L70.1,2.2H46.5V3
	l7.7,10.8v68.4L46.4,93v0.9h23.4V93L62,82.2V22.1l51.5,71.7h11.9l0.9-0.9V13.8L134.1,3z M36.1,93l-8.3-10.5V13.8L36.1,3V2.2H1V3
	l8.3,10.8v68.7L1,93v0.9h35.1V93z"/>
</svg>
